<svg width="60" height="60" viewBox="0 0 60 60" fill="none" xmlns="http://www.w3.org/2000/svg">
<g filter="url(#filter0_i)">
<circle cx="30" cy="29.9999" r="18.1579" fill="#50B520"/>
</g>
<g filter="url(#filter1_i)">
<circle cx="30" cy="30" r="29.75" stroke="#50B520" stroke-opacity="0.09" stroke-width="0.5"/>
</g>
<g filter="url(#filter2_i)">
<circle cx="30" cy="29.9999" r="23.1842" stroke="#50B520" stroke-opacity="0.09"/>
</g>
<path d="M37.8125 21.5625H22.1875C21.7732 21.563 21.3761 21.7277 21.0832 22.0207C20.7902 22.3136 20.6255 22.7107 20.625 23.125V33.125C20.6255 33.5393 20.7902 33.9364 21.0832 34.2293C21.3761 34.5223 21.7732 34.687 22.1875 34.6875H28.125V36.5625H26.875C26.4607 36.563 26.0636 36.7277 25.7707 37.0207C25.4777 37.3136 25.313 37.7107 25.3125 38.125C25.3125 38.2079 25.3454 38.2874 25.404 38.346C25.4626 38.4046 25.5421 38.4375 25.625 38.4375H34.375C34.4579 38.4375 34.5374 38.4046 34.596 38.346C34.6546 38.2874 34.6875 38.2079 34.6875 38.125C34.687 37.7107 34.5223 37.3136 34.2293 37.0207C33.9364 36.7277 33.5393 36.563 33.125 36.5625H31.875V34.6875H37.8125C38.2268 34.687 38.6239 34.5223 38.9168 34.2293C39.2098 33.9364 39.3745 33.5393 39.375 33.125V23.125C39.3745 22.7107 39.2098 22.3136 38.9168 22.0207C38.6239 21.7277 38.2268 21.563 37.8125 21.5625ZM22.1875 22.1875H37.8125C38.0611 22.1878 38.2993 22.2866 38.4751 22.4624C38.6509 22.6382 38.7497 22.8764 38.75 23.125V32.8125H21.25V23.125C21.2503 22.8764 21.3491 22.6382 21.5249 22.4624C21.7007 22.2866 21.9389 22.1878 22.1875 22.1875ZM34.0089 37.8125H25.9911C26.0559 37.6298 26.1757 37.4717 26.3339 37.3598C26.4922 37.2479 26.6812 37.1877 26.875 37.1875H33.125C33.3188 37.1877 33.5078 37.2479 33.6661 37.3598C33.8243 37.4717 33.9441 37.6298 34.0089 37.8125ZM31.25 36.5625H28.75V34.6875H31.25V36.5625ZM37.8125 34.0625H22.1875C21.9937 34.0623 21.8047 34.002 21.6465 33.8902C21.4883 33.7783 21.3686 33.6201 21.3038 33.4375H38.6962C38.6314 33.6201 38.5117 33.7782 38.3535 33.8901C38.1953 34.002 38.0063 34.0623 37.8125 34.0625Z" fill="white"/>
<path d="M22.8125 27.8125H23.125C23.1252 28.0318 23.183 28.2472 23.2927 28.4371C23.4024 28.627 23.5601 28.7846 23.75 28.8943V30C23.75 30.0336 23.7554 30.067 23.766 30.0988L24.391 31.9738C24.4118 32.036 24.4516 32.0902 24.5048 32.1285C24.558 32.1669 24.6219 32.1875 24.6875 32.1875H25.3125C25.3954 32.1875 25.4749 32.1546 25.5335 32.096C25.5921 32.0374 25.625 31.9579 25.625 31.875V30.625H25.9375V31.875C25.9375 31.9579 25.9704 32.0374 26.029 32.096C26.0876 32.1546 26.1671 32.1875 26.25 32.1875H26.875C26.9406 32.1875 27.0045 32.1669 27.0577 32.1285C27.1109 32.0902 27.1507 32.036 27.1715 31.9738L27.5169 30.9375H27.5538C27.6186 31.1201 27.7383 31.2783 27.8965 31.3902C28.0547 31.5021 28.2437 31.5623 28.4375 31.5625H29.0625C29.1503 31.5624 29.2376 31.5498 29.3219 31.5253L29.3781 31.9192C29.3888 31.9937 29.4259 32.0618 29.4827 32.1111C29.5396 32.1604 29.6123 32.1875 29.6875 32.1875H30.625C30.7012 32.1875 30.7747 32.1597 30.8318 32.1093C30.8889 32.0589 30.9256 31.9893 30.9351 31.9138L31.2476 29.4138C31.2492 29.4009 31.25 29.388 31.25 29.375V28.4375C31.2494 27.9404 31.0517 27.4638 30.7002 27.1123C30.3487 26.7608 29.8721 26.5631 29.375 26.5625H26.875V26.25C26.875 26.1671 26.8421 26.0876 26.7835 26.029C26.7249 25.9704 26.6454 25.9375 26.5625 25.9375H25.9375C25.7977 25.9373 25.6596 25.9687 25.5336 26.0291C25.5046 26 25.4701 25.977 25.4322 25.9612C25.3942 25.9455 25.3536 25.9374 25.3125 25.9375H23.4375C23.3964 25.9374 23.3558 25.9455 23.3178 25.9612C23.2799 25.977 23.2454 26 23.2164 26.0291C23.0904 25.9687 22.9523 25.9373 22.8125 25.9375H22.1875C22.1046 25.9375 22.0251 25.9704 21.9665 26.029C21.9079 26.0876 21.875 26.1671 21.875 26.25V26.875C21.8753 27.1236 21.9741 27.3618 22.1499 27.5376C22.3257 27.7134 22.5639 27.8122 22.8125 27.8125ZM29.0625 30.9375H28.4375C28.4022 30.9374 28.3672 30.9313 28.3339 30.9195C28.5002 30.8911 28.659 30.8295 28.8009 30.7383C28.9428 30.647 29.0647 30.528 29.1595 30.3885L29.2309 30.8884C29.1806 30.9206 29.1222 30.9376 29.0625 30.9375ZM30 27.3557V27.6831C30 27.8832 29.9205 28.075 29.779 28.2165C29.6375 28.358 29.4457 28.4375 29.2456 28.4375H29.0625V29.0625H29.2456C29.5439 29.0624 29.8341 28.9657 30.0729 28.7868C30.3116 28.608 30.486 28.3566 30.5699 28.0703C30.6065 28.1893 30.6251 28.313 30.625 28.4375V29.3555L30.3491 31.5625H29.9585L29.6844 29.6433C29.6737 29.5688 29.6366 29.5007 29.5798 29.4514C29.5229 29.4021 29.4502 29.375 29.375 29.375H29.0625C28.9796 29.375 28.9001 29.4079 28.8415 29.4665C28.7829 29.5251 28.75 29.6046 28.75 29.6875C28.7498 29.8532 28.6839 30.0121 28.5667 30.1292C28.4496 30.2464 28.2907 30.3123 28.125 30.3125H27.7252L27.7965 30.0988C27.8071 30.067 27.8125 30.0336 27.8125 30V29.6875H27.1875V29.9493L26.6498 31.5625H26.5625V30.3125C26.5625 30.2296 26.5296 30.1501 26.471 30.0915C26.4124 30.0329 26.3329 30 26.25 30H25.3125C25.2296 30 25.1501 30.0329 25.0915 30.0915C25.0329 30.1501 25 30.2296 25 30.3125V31.5625H24.9127L24.375 29.9493V29.0625C24.6744 29.0621 24.9637 28.9544 25.1906 28.759C25.4174 28.5635 25.5666 28.2933 25.6113 27.9972C25.7286 28.135 25.8744 28.2457 26.0386 28.3217C26.2028 28.3977 26.3815 28.4372 26.5625 28.4375H26.5736C26.6132 28.7112 26.7549 28.9598 26.9703 29.1332C27.1856 29.3066 27.4587 29.392 27.7345 29.3722C28.0103 29.3524 28.2684 29.2289 28.4568 29.0264C28.6452 28.824 28.75 28.5578 28.75 28.2813V27.1875H29.375C29.5945 27.1873 29.8102 27.2454 30 27.3557ZM26.8212 27.1875H28.125V28.2813C28.125 28.4056 28.0756 28.5248 27.9877 28.6127C27.8998 28.7006 27.7806 28.75 27.6562 28.75C27.5319 28.75 27.4127 28.7006 27.3248 28.6127C27.2369 28.5248 27.1875 28.4056 27.1875 28.2813V28.125C27.1875 28.0421 27.1546 27.9626 27.096 27.904C27.0374 27.8454 26.9579 27.8125 26.875 27.8125H26.5625C26.4654 27.8125 26.3696 27.7898 26.2828 27.7463C26.4071 27.6967 26.5194 27.6213 26.6122 27.5249C26.7051 27.4286 26.7763 27.3135 26.8212 27.1875ZM25.9375 26.5625H26.25V26.875C26.2499 26.9579 26.217 27.0373 26.1584 27.0959C26.0998 27.1545 26.0204 27.1874 25.9375 27.1875H25.625V26.875C25.6251 26.7921 25.658 26.7127 25.7166 26.6541C25.7752 26.5956 25.8546 26.5626 25.9375 26.5625ZM23.75 26.5625H25V27.8125C25 27.9783 24.9342 28.1372 24.8169 28.2544C24.6997 28.3717 24.5408 28.4375 24.375 28.4375C24.2092 28.4375 24.0503 28.3717 23.9331 28.2544C23.8158 28.1372 23.75 27.9783 23.75 27.8125V26.5625ZM22.5 26.5625H22.8125C22.8954 26.5626 22.9748 26.5956 23.0334 26.6541C23.092 26.7127 23.1249 26.7921 23.125 26.875V27.1875H22.8125C22.7296 27.1874 22.6502 27.1545 22.5916 27.0959C22.533 27.0373 22.5001 26.9579 22.5 26.875V26.5625Z" fill="white"/>
<path d="M26.3795 23.4375H29.6876V22.8125H26.2501C26.1672 22.8125 26.0877 22.8454 26.0291 22.904L23.8416 25.0915L24.2836 25.5335L26.3795 23.4375Z" fill="white"/>
<path d="M32.1875 22.8125H30.9375V23.4375H32.1875V22.8125Z" fill="white"/>
<path d="M33.4375 22.8125H32.8125V23.4375H33.4375V22.8125Z" fill="white"/>
<path d="M36.5625 22.8125H34.0625V23.4375H36.5625V22.8125Z" fill="white"/>
<path d="M31.5625 24.0625H29.6875V24.6875H31.5625V24.0625Z" fill="white"/>
<path d="M34.6875 24.0625H32.1875V24.6875H34.6875V24.0625Z" fill="white"/>
<path d="M36.5625 24.0625H35.3125V24.6875H36.5625V24.0625Z" fill="white"/>
<path d="M36.5625 28.75H34.6875V26.875C34.6875 26.7921 34.6545 26.7126 34.5959 26.654C34.5373 26.5954 34.4579 26.5625 34.375 26.5625C33.8805 26.5625 33.3972 26.7091 32.986 26.9838C32.5749 27.2585 32.2545 27.649 32.0653 28.1058C31.8761 28.5626 31.8265 29.0653 31.923 29.5502C32.0195 30.0352 32.2576 30.4806 32.6072 30.8303C32.9568 31.1799 33.4023 31.418 33.8872 31.5145C34.3722 31.6109 34.8749 31.5614 35.3317 31.3722C35.7885 31.183 36.1789 30.8625 36.4536 30.4514C36.7283 30.0403 36.875 29.557 36.875 29.0625C36.875 28.9796 36.842 28.9001 36.7834 28.8415C36.7248 28.7829 36.6454 28.75 36.5625 28.75ZM34.375 30.9375C33.9048 30.9375 33.4518 30.7608 33.1058 30.4426C32.7597 30.1243 32.5459 29.6877 32.5065 29.2192C32.4672 28.7507 32.6053 28.2845 32.8935 27.913C33.1817 27.5416 33.5989 27.2919 34.0625 27.2135V29.0625C34.0625 29.1454 34.0954 29.2249 34.154 29.2835C34.2126 29.3421 34.2921 29.375 34.375 29.375H36.2239C36.1495 29.8117 35.9231 30.208 35.5848 30.4939C35.2464 30.7798 34.8179 30.9369 34.375 30.9375Z" fill="white"/>
<path d="M35.3125 25.625V27.8125C35.3125 27.8954 35.3454 27.9749 35.404 28.0335C35.4626 28.0921 35.5421 28.125 35.625 28.125H37.8125C37.8954 28.125 37.9749 28.0921 38.0335 28.0335C38.0921 27.9749 38.125 27.8954 38.125 27.8125C38.125 27.4842 38.0604 27.1591 37.9348 26.8557C37.8092 26.5524 37.625 26.2768 37.3929 26.0446C37.1607 25.8125 36.8851 25.6283 36.5818 25.5027C36.2784 25.3771 35.9533 25.3125 35.625 25.3125C35.5421 25.3125 35.4626 25.3454 35.404 25.404C35.3454 25.4626 35.3125 25.5421 35.3125 25.625ZM35.9375 25.9633C36.3214 26.0284 36.6756 26.2112 36.9509 26.4866C37.2263 26.7619 37.4091 27.1161 37.4742 27.5H35.9375V25.9633Z" fill="white"/>
<path d="M29.0625 24.0625H27.8125V24.6875H29.0625V24.0625Z" fill="white"/>
<defs>
<filter id="filter0_i" x="11.8421" y="11.842" width="36.3158" height="46.3158" filterUnits="userSpaceOnUse" color-interpolation-filters="sRGB">
<feFlood flood-opacity="0" result="BackgroundImageFix"/>
<feBlend mode="normal" in="SourceGraphic" in2="BackgroundImageFix" result="shape"/>
<feColorMatrix in="SourceAlpha" type="matrix" values="0 0 0 0 0 0 0 0 0 0 0 0 0 0 0 0 0 0 127 0" result="hardAlpha"/>
<feOffset dy="10"/>
<feGaussianBlur stdDeviation="10"/>
<feComposite in2="hardAlpha" operator="arithmetic" k2="-1" k3="1"/>
<feColorMatrix type="matrix" values="0 0 0 0 1 0 0 0 0 1 0 0 0 0 1 0 0 0 0.25 0"/>
<feBlend mode="normal" in2="shape" result="effect1_innerShadow"/>
</filter>
<filter id="filter1_i" x="0" y="0" width="60" height="70" filterUnits="userSpaceOnUse" color-interpolation-filters="sRGB">
<feFlood flood-opacity="0" result="BackgroundImageFix"/>
<feBlend mode="normal" in="SourceGraphic" in2="BackgroundImageFix" result="shape"/>
<feColorMatrix in="SourceAlpha" type="matrix" values="0 0 0 0 0 0 0 0 0 0 0 0 0 0 0 0 0 0 127 0" result="hardAlpha"/>
<feOffset dy="10"/>
<feGaussianBlur stdDeviation="10"/>
<feComposite in2="hardAlpha" operator="arithmetic" k2="-1" k3="1"/>
<feColorMatrix type="matrix" values="0 0 0 0 1 0 0 0 0 1 0 0 0 0 1 0 0 0 0.25 0"/>
<feBlend mode="normal" in2="shape" result="effect1_innerShadow"/>
</filter>
<filter id="filter2_i" x="6.3158" y="6.31567" width="47.3684" height="57.3684" filterUnits="userSpaceOnUse" color-interpolation-filters="sRGB">
<feFlood flood-opacity="0" result="BackgroundImageFix"/>
<feBlend mode="normal" in="SourceGraphic" in2="BackgroundImageFix" result="shape"/>
<feColorMatrix in="SourceAlpha" type="matrix" values="0 0 0 0 0 0 0 0 0 0 0 0 0 0 0 0 0 0 127 0" result="hardAlpha"/>
<feOffset dy="10"/>
<feGaussianBlur stdDeviation="10"/>
<feComposite in2="hardAlpha" operator="arithmetic" k2="-1" k3="1"/>
<feColorMatrix type="matrix" values="0 0 0 0 1 0 0 0 0 1 0 0 0 0 1 0 0 0 0.25 0"/>
<feBlend mode="normal" in2="shape" result="effect1_innerShadow"/>
</filter>
</defs>
</svg>
