<svg width="173" height="40" viewBox="0 0 173 40" fill="none" xmlns="http://www.w3.org/2000/svg">
<path fill-rule="evenodd" clip-rule="evenodd" d="M154.233 24.0197C154.233 29.4796 153.24 30.9674 151.154 30.9674C149.019 30.9674 147.976 29.4796 147.976 24.0197C147.976 18.5109 149.019 17.072 151.154 17.072C153.24 17.072 154.233 18.5109 154.233 24.0197ZM138.541 24.0197C138.541 28.744 139.678 32.0744 141.689 34.2662C144.12 33.4985 141.279 26.4154 143.989 35.974C146.089 34.6974 146.364 33.4663 146.171 29.0169C150.486 33.4275 149.534 36.0424 151.372 36.1825C153.211 36.3233 154.794 30.2775 154.794 30.2775C154.794 30.2775 157.997 36.967 159.411 33.0419C160.396 30.3049 161.905 28.5684 163.447 27.395C163.592 26.3591 163.667 25.2353 163.667 24.0197C163.667 14.0447 158.751 10.2725 151.154 10.2725C143.556 10.2725 138.541 14.0447 138.541 24.0197ZM126.077 20.2978V27.8415C125.928 29.5285 125.085 30.8682 123.346 30.8682C121.062 30.8682 120.218 29.4293 120.218 24.1686C120.218 18.5605 121.062 17.1217 123.346 17.1217C125.035 17.1217 125.878 18.5109 126.077 20.2978ZM126.077 0.446413V12.8037C124.637 11.2159 122.701 10.2725 120.068 10.2725C114.16 10.2725 110.684 14.0447 110.684 24.1686C110.684 30.2748 112.074 33.9431 114.399 35.8935C115.666 35.4255 116.352 29.8061 119.359 27.7551C117.488 30.9413 118.737 35.3169 121.436 36.0699C122.348 36.324 123.28 36.564 124.113 36.8021C125.046 36.3079 125.809 35.6361 126.425 34.8388L126.822 36.8242C126.822 36.8242 127.639 37.0495 129.144 37.1608C129.607 34.9039 130.319 32.6859 131.214 31.8082C130.478 34.2012 131.969 36.0028 133.542 37.0682C134.504 36.9563 135.065 36.8242 135.065 36.8242V0.396797C135.065 0.396797 133.327 -0.000137624 130.596 -0.000137624C127.815 -0.000137624 126.077 0.446413 126.077 0.446413ZM86.3518 12.4563C86.3518 12.4563 86.2035 14.0447 86.9482 15.8316C87.7425 17.6674 88.8843 18.6108 88.8843 18.6108C88.8843 18.6108 91.7651 17.5682 94.6947 17.5682C97.177 17.5682 98.3195 18.6108 98.3195 20.5459V21.1413C97.177 21.0427 95.8366 20.9428 94.5948 20.9428C87.7921 20.9428 84.3654 23.2755 84.3654 28.9821C84.3654 29.6941 84.4049 30.3599 84.4801 30.9835C84.9765 29.2623 85.6977 27.7919 86.7342 27.0571C85.426 30.4384 85.8808 32.7328 87.7217 34.1187C88.1712 32.47 88.2276 30.7877 87.5896 29.1524C94.6733 31.0385 91.804 40.2947 94.7585 32.1763C93.783 31.9275 93.2537 31.074 93.2537 29.1316C93.2537 26.8988 94.2473 26.1043 96.0848 26.1043C96.8798 26.1043 97.6238 26.1043 98.3195 26.2035V27.6424C98.3195 29.9261 97.67 31.6687 96.2807 32.1347C95.434 32.7784 96.3048 35.7581 97.0663 36.5097C97.817 36.0236 98.3993 35.3974 98.8159 34.641L99.6102 36.8242C99.6102 36.8242 101 37.2204 103.434 37.2204C103.695 37.2204 103.945 37.2171 104.182 37.2084C106.087 34.0021 105.64 27.7437 103.238 25.6383C104.536 25.5364 105.948 26.339 107.307 27.5385V19.5039C107.307 13.2502 103.98 10.2725 96.333 10.2725C90.5722 10.2725 86.3518 12.4563 86.3518 12.4563ZM77.0166 17.4194H81.8335C81.8335 17.4194 82.181 16.1286 82.181 14.2432C82.181 12.2579 81.8335 11.1167 81.8335 11.1167H77.0166V5.31019C73.938 5.01182 70.263 5.45837 67.9793 6.55061V11.1167H64.5532C64.5532 11.1167 64.2057 12.2579 64.2057 14.2928C64.2057 16.1789 64.5532 17.4194 64.5532 17.4194H67.9793V27.8415C67.9793 29.0873 68.0598 30.1977 68.2296 31.182C69.5129 29.1805 70.7326 27.3219 71.5269 27.2247L71.5396 36.493C71.7322 36.6016 71.9328 36.7022 72.1421 36.7954C73.4308 34.8261 74.8028 32.881 74.8598 31.4656C75.9359 32.297 75.1744 35.3243 75.0745 37.5637C75.8762 37.667 76.7537 37.7173 77.7117 37.7173C77.9706 37.7173 78.2282 37.7133 78.4825 37.7052C79.5545 36.8128 80.1784 35.856 80.6065 32.9273C81.2102 34.0161 81.6926 35.8513 81.9361 37.3351C82.2702 37.2721 82.6003 37.201 82.9257 37.1219C82.9257 37.1219 83.2738 36.0799 83.2738 34.3427C83.2738 31.9604 82.5782 30.8192 82.5782 30.8192C82.5782 30.8192 81.5356 31.0673 80.3435 31.0673C78.2088 31.0673 77.0166 30.3727 77.0166 27.6927V17.4194ZM50.8071 30.9674C52.6519 33.2726 52.7573 36.0598 51.3538 37.7079C50.4676 37.6851 49.6377 37.6174 48.8689 37.5208C48.5355 35.3028 47.8666 32.9896 47.287 31.5641C47.287 31.5641 47.4795 35.1064 46.4746 37.0957C43.8327 36.4816 42.3568 35.6334 42.3568 35.6334C42.3568 33.1519 43.0021 31.365 44.3425 29.8758C44.3425 29.8758 47.4165 30.9486 50.8071 30.9674ZM42.605 18.8093C42.605 23.8213 45.8822 25.6075 48.9615 26.6501C51.7416 27.5928 54.3238 27.9408 54.3238 29.3307C54.3238 29.9576 54.0279 30.4042 53.296 30.6717C54.4559 32.4445 55.738 33.3805 56.3008 35.6837C57.2622 39.6094 60.3059 30.7019 59.4217 27.7001C60.7299 28.9767 61.327 31.3073 61.9368 33.2082C62.5319 32.004 62.815 30.5852 62.815 28.9821C62.815 24.1686 59.7363 22.2328 56.757 21.1413C53.7777 20.0993 50.848 19.8512 50.848 18.4613C50.848 17.469 51.6423 16.824 53.9762 16.824C57.1542 16.824 59.9349 17.6178 59.9349 17.6178C61.4249 16.1789 61.9214 13.9455 61.8214 11.8609C61.8214 11.8609 58.7435 10.2725 53.033 10.2725C45.9318 10.2725 42.605 13.4493 42.605 18.8093ZM38.4832 25.9554C38.4832 25.9554 38.881 24.8143 38.881 22.8289C38.881 20.8436 38.4832 19.7024 38.4832 19.7024H26.8637C26.8637 19.7024 26.5162 20.8436 26.5162 22.8289C26.5162 24.8143 26.8637 25.9554 26.8637 25.9554H27.0663C27.1522 25.8897 27.2877 25.8917 27.4654 25.9554H38.4832ZM14.6981 19.9505C14.6981 20.4466 14.6981 20.9428 14.6485 21.439H9.38481C9.68268 17.7171 10.8748 16.5256 12.4138 16.5256C14.1024 16.5256 14.6981 17.9651 14.6981 19.9505ZM22.6929 26.5508C22.6929 26.5508 23.239 24.2678 23.239 20.8932C23.239 13.7464 19.0178 10.2725 12.1656 10.2725C4.56796 10.2725 0 14.4913 0 24.0197C0 25.4767 0.100634 26.8083 0.301224 28.0199C6.68188 30.5685 3.36777 39.6906 7.27425 28.8513C7.27425 28.8513 7.37958 34.283 10.6957 34.7564C14.0138 35.2297 14.8316 30.6744 14.9376 31.5125C15.2764 34.2005 16.696 35.2693 17.6057 37.1024C20.3831 36.3817 21.7496 35.2861 21.7496 35.2861C21.6503 33.0024 20.3093 30.4216 18.9682 29.3307C18.9682 29.3307 16.9328 30.5208 14.1024 30.5208C11.5698 30.5208 10.0302 29.6774 9.48411 26.5508H22.6929Z" fill="url(#paint0_linear)"/>
<path d="M169.394 36.9273H169.818C170.028 36.9273 170.196 36.8723 170.323 36.7637C170.45 36.6551 170.514 36.5176 170.514 36.35C170.514 36.1535 170.458 36.0121 170.345 35.9269C170.232 35.8418 170.054 35.7995 169.81 35.7995H169.394V36.9273ZM171.1 36.3339C171.1 36.5438 171.044 36.7282 170.933 36.8891C170.821 37.0507 170.665 37.1707 170.463 37.2491L171.398 38.8013H170.738L169.924 37.4107H169.394V38.8013H168.812V35.3007H169.838C170.273 35.3007 170.592 35.3858 170.795 35.5561C170.998 35.7264 171.1 35.9859 171.1 36.3339ZM167.358 37.0493C167.358 37.5019 167.472 37.925 167.7 38.3192C167.927 38.7135 168.238 39.0239 168.633 39.2506C169.027 39.4772 169.45 39.5912 169.901 39.5912C170.357 39.5912 170.78 39.4772 171.17 39.2492C171.561 39.0213 171.871 38.7122 172.1 38.3233C172.329 37.9344 172.444 37.51 172.444 37.0493C172.444 36.5934 172.33 36.1703 172.102 35.7801C171.874 35.3898 171.565 35.0794 171.176 34.8501C170.787 34.6215 170.362 34.5075 169.901 34.5075C169.445 34.5075 169.021 34.6215 168.631 34.8488C168.24 35.0767 167.93 35.3845 167.702 35.7734C167.472 36.1623 167.358 36.588 167.358 37.0493ZM166.945 37.0493C166.945 36.525 167.076 36.0342 167.338 35.5756C167.6 35.1176 167.96 34.7562 168.419 34.4914C168.877 34.2272 169.372 34.0945 169.901 34.0945C170.425 34.0945 170.917 34.2259 171.375 34.4874C171.834 34.7495 172.195 35.1096 172.46 35.5682C172.725 36.0262 172.857 36.5203 172.857 37.0493C172.857 37.5649 172.73 38.0497 172.476 38.503C172.221 38.9555 171.865 39.3183 171.406 39.5912C170.947 39.8634 170.446 39.9995 169.901 39.9995C169.358 39.9995 168.858 39.8634 168.399 39.5925C167.941 39.321 167.584 38.9596 167.328 38.5063C167.072 38.0537 166.945 37.5676 166.945 37.0493Z" fill="url(#paint1_linear)"/>
<defs>
<linearGradient id="paint0_linear" x1="81.8335" y1="37.7173" x2="81.8335" y2="-0.000140167" gradientUnits="userSpaceOnUse">
<stop stop-color="#6EC545"/>
<stop offset="1" stop-color="#50B520"/>
</linearGradient>
<linearGradient id="paint1_linear" x1="169.901" y1="39.9995" x2="169.901" y2="34.0945" gradientUnits="userSpaceOnUse">
<stop stop-color="#6EC545"/>
<stop offset="1" stop-color="#50B520"/>
</linearGradient>
</defs>
</svg>
